<svg width="24" height="24" viewBox="0 0 24 24" fill="none" xmlns="http://www.w3.org/2000/svg">
<path d="M14.6689 3.9834C15.029 4.10472 15.3804 4.25004 15.7207 4.41895L18.6074 3.06836L20.8838 5.32812L19.5547 8.2207C19.7238 8.5605 19.8703 8.91207 19.9922 9.27148L22.9883 10.3564L23 13.5645L20.0166 14.6689C19.8953 15.029 19.75 15.3804 19.5811 15.7207L20.9316 18.6084L18.6719 20.8838L15.7793 19.5547C15.4395 19.7237 15.0879 19.8702 14.7285 19.9922L13.6436 22.9883L10.4355 23L9.33105 20.0166C8.97103 19.8953 8.61957 19.75 8.2793 19.5811L5.3916 20.9316L3.11621 18.6719L4.44531 15.7793C4.27626 15.4395 4.12976 15.0879 4.00781 14.7285L1.01172 13.6436L1 10.4355L3.9834 9.33203C4.10467 8.972 4.24999 8.62054 4.41895 8.28027L3.06836 5.3916L5.32812 3.11621L8.2207 4.44531C8.56054 4.27633 8.9121 4.12983 9.27148 4.00781L10.3564 1.01172L13.5645 1L14.6689 3.9834ZM13.4541 8.48926C12.7598 8.20168 11.9959 8.12683 11.2588 8.27344C10.5217 8.42006 9.84492 8.78204 9.31348 9.31348C8.78204 9.84492 8.42006 10.5217 8.27344 11.2588C8.12683 11.9959 8.20168 12.7598 8.48926 13.4541C8.77682 14.1484 9.26391 14.7416 9.88867 15.1592C10.5136 15.5767 11.2484 15.7998 12 15.7998C13.0075 15.7987 13.9731 15.398 14.6855 14.6855C15.398 13.9731 15.7987 13.0075 15.7998 12C15.7998 11.2484 15.5767 10.5136 15.1592 9.88867C14.7416 9.26391 14.1484 8.77682 13.4541 8.48926Z" fill="white"/>
</svg>
