<svg width="22" height="22" viewBox="0 0 22 22" fill="none" xmlns="http://www.w3.org/2000/svg">
<path d="M19.017 13.669L22 12.564L21.988 9.356L18.992 8.271C18.8701 7.91159 18.7241 7.56079 18.555 7.221L19.884 4.328L17.607 2.068L14.721 3.419C14.3806 3.25003 14.0291 3.10436 13.669 2.983L12.564 0L9.356 0.012L8.271 3.008C7.91162 3.13002 7.56083 3.27601 7.221 3.445L4.328 2.116L2.068 4.392L3.419 7.28C3.24998 7.62037 3.10431 7.97185 2.983 8.332L0 9.436L0.012 12.644L3.008 13.729C3.12995 14.0884 3.27595 14.4392 3.445 14.779L2.116 17.672L4.392 19.932L7.279 18.581C7.61938 18.75 7.97086 18.8957 8.331 19.017L9.436 22L12.644 21.988L13.729 18.992C14.0884 18.87 14.4392 18.724 14.779 18.555L17.672 19.884L19.932 17.608L18.581 14.721C18.75 14.3806 18.8957 14.0291 19.017 13.669ZM18.73 17.399L17.455 18.684L14.761 17.446L14.332 17.661C14.0315 17.8096 13.7215 17.9382 13.404 18.046L12.952 18.202L11.942 20.991L10.132 20.998L9.102 18.219L8.646 18.068C8.32898 17.9608 8.0196 17.8321 7.72 17.683L7.29 17.473L4.602 18.73L3.316 17.455L4.555 14.76L4.339 14.33C4.18995 14.0302 4.061 13.7209 3.953 13.404L3.798 12.952L1.008 11.942L1.003 10.132L3.78 9.102L3.932 8.646C4.03905 8.32873 4.16734 8.01903 4.316 7.719L4.528 7.289L3.27 4.601L4.545 3.316L7.239 4.554L7.668 4.339C7.96852 4.19037 8.27853 4.06176 8.596 3.954L9.048 3.798L10.058 1.009L11.868 1.002L12.898 3.781L13.354 3.932C13.6707 4.03914 13.9798 4.16778 14.279 4.317L14.709 4.528L17.4 3.27L18.685 4.545L17.446 7.24L17.662 7.67C17.8111 7.96977 17.94 8.27912 18.048 8.596L18.203 9.048L20.993 10.058L20.998 11.868L18.221 12.898L18.069 13.354C17.9619 13.6713 17.8337 13.981 17.685 14.281L17.473 14.711L18.73 17.399ZM11 6.2C10.0506 6.2 9.12262 6.48151 8.33326 7.00895C7.54391 7.53638 6.92868 8.28603 6.56538 9.16312C6.20208 10.0402 6.10702 11.0053 6.29223 11.9364C6.47744 12.8675 6.9346 13.7228 7.60589 14.3941C8.27718 15.0654 9.13246 15.5226 10.0636 15.7078C10.9947 15.893 11.9598 15.7979 12.8369 15.4346C13.714 15.0713 14.4636 14.4561 14.9911 13.6667C15.5185 12.8774 15.8 11.9494 15.8 11C15.8 9.72696 15.2943 8.50606 14.3941 7.60589C13.4939 6.70571 12.273 6.2 11 6.2ZM11 14.8C10.2484 14.8 9.51374 14.5771 8.88883 14.1596C8.26393 13.742 7.77687 13.1486 7.48926 12.4542C7.20164 11.7598 7.12639 10.9958 7.27302 10.2587C7.41964 9.52153 7.78155 8.84443 8.31299 8.31299C8.84443 7.78155 9.52153 7.41964 10.2587 7.27302C10.9958 7.12639 11.7598 7.20164 12.4542 7.48926C13.1486 7.77687 13.742 8.26393 14.1596 8.88883C14.5771 9.51374 14.8 10.2484 14.8 11C14.7989 12.0075 14.3982 12.9734 13.6858 13.6858C12.9734 14.3982 12.0075 14.7989 11 14.8Z" fill="white"/>
</svg>
